<mxfile host="Electron" agent="Mozilla/5.0 (Windows NT 10.0; Win64; x64) AppleWebKit/537.36 (KHTML, like Gecko) draw.io/28.1.2 Chrome/138.0.7204.243 Electron/37.4.0 Safari/537.36" version="28.1.2">
  <diagram name="ページ1" id="rQqJZIX6tr6lNk25Nhh9">
    <mxGraphModel dx="1429" dy="938" grid="1" gridSize="10" guides="1" tooltips="1" connect="1" arrows="1" fold="1" page="1" pageScale="1" pageWidth="1600" pageHeight="1200" math="0" shadow="0">
      <root>
        <mxCell id="0" />
        <mxCell id="1" parent="0" />
        <mxCell id="zxD_qUJFkhxQNFZk0TIe-1" value="RoboDog" style="rounded=0;whiteSpace=wrap;html=1;" vertex="1" parent="1">
          <mxGeometry x="750" y="510" width="100" height="40" as="geometry" />
        </mxCell>
        <mxCell id="zxD_qUJFkhxQNFZk0TIe-7" value="名前" style="rounded=0;whiteSpace=wrap;html=1;" vertex="1" parent="1">
          <mxGeometry x="530" y="650" width="100" height="40" as="geometry" />
        </mxCell>
        <mxCell id="zxD_qUJFkhxQNFZk0TIe-8" value="" style="endArrow=diamondThin;html=1;rounded=0;entryX=0;entryY=1;entryDx=0;entryDy=0;exitX=0.5;exitY=0;exitDx=0;exitDy=0;endFill=0;endSize=15;" edge="1" parent="1" source="zxD_qUJFkhxQNFZk0TIe-7" target="zxD_qUJFkhxQNFZk0TIe-1">
          <mxGeometry width="50" height="50" relative="1" as="geometry">
            <mxPoint x="780" y="760" as="sourcePoint" />
            <mxPoint x="830" y="710" as="targetPoint" />
          </mxGeometry>
        </mxCell>
        <mxCell id="zxD_qUJFkhxQNFZk0TIe-9" value="挨拶" style="rounded=0;whiteSpace=wrap;html=1;" vertex="1" parent="1">
          <mxGeometry x="750" y="650" width="100" height="40" as="geometry" />
        </mxCell>
        <mxCell id="zxD_qUJFkhxQNFZk0TIe-10" value="" style="endArrow=diamondThin;html=1;rounded=0;entryX=0.5;entryY=1;entryDx=0;entryDy=0;exitX=0.5;exitY=0;exitDx=0;exitDy=0;endFill=0;endSize=15;" edge="1" parent="1" source="zxD_qUJFkhxQNFZk0TIe-9" target="zxD_qUJFkhxQNFZk0TIe-1">
          <mxGeometry width="50" height="50" relative="1" as="geometry">
            <mxPoint x="830" y="810" as="sourcePoint" />
            <mxPoint x="850" y="600" as="targetPoint" />
          </mxGeometry>
        </mxCell>
        <mxCell id="zxD_qUJFkhxQNFZk0TIe-11" value="時刻" style="rounded=0;whiteSpace=wrap;html=1;" vertex="1" parent="1">
          <mxGeometry x="640" y="650" width="100" height="40" as="geometry" />
        </mxCell>
        <mxCell id="zxD_qUJFkhxQNFZk0TIe-12" value="" style="endArrow=diamondThin;html=1;rounded=0;entryX=0.25;entryY=1;entryDx=0;entryDy=0;exitX=0.5;exitY=0;exitDx=0;exitDy=0;endFill=0;endSize=15;" edge="1" parent="1" source="zxD_qUJFkhxQNFZk0TIe-11" target="zxD_qUJFkhxQNFZk0TIe-1">
          <mxGeometry width="50" height="50" relative="1" as="geometry">
            <mxPoint x="720" y="760" as="sourcePoint" />
            <mxPoint x="740" y="550" as="targetPoint" />
          </mxGeometry>
        </mxCell>
        <mxCell id="zxD_qUJFkhxQNFZk0TIe-13" value="足し算結果" style="rounded=0;whiteSpace=wrap;html=1;" vertex="1" parent="1">
          <mxGeometry x="970" y="650" width="100" height="40" as="geometry" />
        </mxCell>
        <mxCell id="zxD_qUJFkhxQNFZk0TIe-14" value="" style="endArrow=diamondThin;html=1;rounded=0;entryX=1;entryY=1;entryDx=0;entryDy=0;exitX=0.5;exitY=0;exitDx=0;exitDy=0;endFill=0;endSize=15;" edge="1" parent="1" source="zxD_qUJFkhxQNFZk0TIe-13" target="zxD_qUJFkhxQNFZk0TIe-1">
          <mxGeometry width="50" height="50" relative="1" as="geometry">
            <mxPoint x="1030" y="990" as="sourcePoint" />
            <mxPoint x="1050" y="780" as="targetPoint" />
          </mxGeometry>
        </mxCell>
        <mxCell id="zxD_qUJFkhxQNFZk0TIe-15" value="二つの整数" style="rounded=0;whiteSpace=wrap;html=1;" vertex="1" parent="1">
          <mxGeometry x="860" y="650" width="100" height="40" as="geometry" />
        </mxCell>
        <mxCell id="zxD_qUJFkhxQNFZk0TIe-16" value="" style="endArrow=diamondThin;html=1;rounded=0;entryX=0.75;entryY=1;entryDx=0;entryDy=0;exitX=0.5;exitY=0;exitDx=0;exitDy=0;endFill=0;endSize=15;" edge="1" parent="1" source="zxD_qUJFkhxQNFZk0TIe-15" target="zxD_qUJFkhxQNFZk0TIe-1">
          <mxGeometry width="50" height="50" relative="1" as="geometry">
            <mxPoint x="890" y="760" as="sourcePoint" />
            <mxPoint x="910" y="550" as="targetPoint" />
          </mxGeometry>
        </mxCell>
      </root>
    </mxGraphModel>
  </diagram>
</mxfile>
